# xmcd
#
# Track frame offsets: 
#        150
#        16692
#        43169
#        67991
#        89264
#        106324
#        133213
#        152785
#
# Disc length: 2339 seconds
#
# Revision: 0
# Processed by: cddbd v1.5.2PL0 Copyright (c) Steve Scherf et al.
# Submitted via: ExactAudioCopy v1.3
#
DISCID=61092108
DTITLE=Erja Lyytinen - Another World
DYEAR=2019
DGENRE=Blues
TTITLE0=Snake In The Grass
TTITLE1=Cherry Overdrive
TTITLE2=Another World
TTITLE3=Hard As Stone
TTITLE4=Wedding Day
TTITLE5=Miracle
TTITLE6=Torn
TTITLE7=Break My Heart Gently
EXTD=
EXTT0=
EXTT1=
EXTT2=
EXTT3=
EXTT4=
EXTT5=
EXTT6=
EXTT7=
PLAYORDER=
